<svg width="342" height="208" viewBox="0 0 342 208" fill="none" xmlns="http://www.w3.org/2000/svg">
<g clip-path="url(#clip0_12_256)">
<path d="M231.219 0H77.4238C67.0031 0 58.5554 8.32716 58.5554 18.5992V95.4021C58.5554 105.674 67.0031 114.001 77.4238 114.001H231.219C241.639 114.001 250.087 105.674 250.087 95.4021V18.5992C250.087 8.32716 241.639 0 231.219 0Z" fill="#15140C"/>
<path d="M121.442 63.5464L128.92 68.6532C127.245 76.4845 123.847 82.5466 118.738 86.8396C113.629 91.1445 107.754 93.291 101.126 93.291C92.4276 93.291 85.4402 89.8353 80.1877 82.924C74.9232 76.0127 72.3029 67.462 72.3029 57.2719C72.3029 46.103 74.9471 37.222 80.2355 30.6056C85.5239 24.0009 92.4156 20.6868 100.935 20.6868C108.448 20.6868 114.766 23.1989 119.899 28.2232V21.7954H127.329V44.4164H119.899C118.247 39.8285 115.699 36.2785 112.253 33.7664C108.807 31.2542 105.194 29.9923 101.389 29.9923C95.6581 29.9923 90.9559 32.5162 87.2827 37.5759C83.6096 42.6355 81.767 49.0279 81.767 56.753C81.767 64.4781 83.7412 71.1535 87.6776 76.1778C91.614 81.2021 96.2802 83.7142 101.676 83.7142C106.115 83.7142 110.147 81.9687 113.773 78.4777C117.41 74.9866 119.97 69.9977 121.454 63.5228L121.442 63.5464Z" fill="white"/>
<path d="M159.215 92.9017L139.916 30.6173H132.809V21.819H155.482V30.6173H148.841L163.474 77.8761L177.712 30.6173H171.012V21.819H193.063V30.6173H186.088L167.183 92.9017H159.215Z" fill="white"/>
<path d="M201.821 83.3839V30.6173H194.762V21.819H213.882C219.146 21.819 223.082 22.2082 225.715 22.9866C228.347 23.765 230.668 25.7228 232.678 28.8836C234.688 32.0326 235.693 35.736 235.693 39.9936C235.693 43.2606 235.095 46.2209 233.899 48.8509C232.702 51.481 230.943 53.4742 228.634 54.8187C231.829 56.1633 234.281 58.4041 236.004 61.5178C237.727 64.6432 238.589 68.205 238.589 72.215C238.589 75.6942 237.955 78.8432 236.662 81.6738C235.382 84.5044 233.683 86.6981 231.565 88.2549C229.448 89.8117 227.127 90.8496 224.602 91.3921C222.077 91.9346 218.644 92.2059 214.3 92.2059H194.762V83.4075H201.821V83.3839ZM210.496 51.1036H215.904C220.031 51.1036 222.915 50.2191 224.554 48.45C226.193 46.6808 227.007 44.0744 227.007 40.6305C227.007 33.9551 223.298 30.6173 215.892 30.6173H210.484V51.1036H210.496ZM210.496 83.3839H213.762C218.033 83.3839 221.156 83.1245 223.142 82.6055C225.128 82.0866 226.744 80.8482 228 78.914C229.256 76.9798 229.878 74.4912 229.878 71.4484C229.878 68.6768 229.28 66.3651 228.084 64.4899C226.887 62.6146 225.344 61.3762 223.453 60.7511C221.563 60.1261 218.907 59.8194 215.461 59.8194H210.508V83.3957L210.496 83.3839Z" fill="white"/>
<g filter="url(#filter0_d_12_256)">
<path d="M95.4905 53.321C98.0869 53.321 100.731 53.5451 103.411 54.005C106.091 54.4532 108.496 55.2552 110.65 56.3874C112.792 57.5197 114.514 59.0647 115.819 61.0343C117.123 62.9921 117.769 65.5632 117.769 68.7358C117.769 71.4484 117.195 74.279 116.046 77.2275C114.897 80.1761 113.174 83.042 110.877 85.8254C108.58 88.6206 105.708 91.2625 102.263 93.751C98.8167 96.2396 94.7966 98.3979 90.2021 100.202C89.8911 100.356 89.5082 100.426 89.0535 100.426C87.6776 100.426 86.9836 99.6009 86.9836 97.9379C86.9836 96.5816 87.5938 95.6734 88.8262 95.2253C92.3438 93.7156 95.5623 91.9465 98.4698 89.9062C101.377 87.8658 103.902 85.6839 106.043 83.3369C108.185 81.0016 109.872 78.6192 111.093 76.2015C112.313 73.7837 112.935 71.6018 112.935 69.6322C112.935 66.7662 111.703 64.3838 109.262 62.4968C106.809 60.6097 102.753 59.6662 97.0938 59.6662C95.4068 59.6662 93.6839 59.7841 91.9251 60.0082C90.1663 60.2323 88.216 60.5036 86.0623 60.7984C78.716 62.0132 71.1663 64.3838 63.437 67.9338C55.7078 71.4838 48.6606 75.4466 42.3073 79.8222C35.954 84.1978 30.7494 88.7621 26.6933 93.5151C22.6373 98.2681 20.6033 102.455 20.6033 106.076C20.6033 108.045 21.2972 109.85 22.6732 111.513C24.9704 114.084 28.7632 116.077 34.0397 117.516C39.3281 118.955 44.9156 120.347 50.8023 121.703C56.6889 123.059 62.3961 124.534 67.9118 126.114C73.4276 127.694 77.5554 130.006 80.3193 133.025C83.0712 135.891 84.4591 139.064 84.4591 142.531C84.4591 145.999 83.2746 149.136 80.8936 152.379C78.5126 155.623 75.5334 158.536 71.932 161.095C68.3306 163.666 64.3822 165.707 60.0989 167.204C55.8155 168.714 51.6757 169.469 47.6914 169.469C45.2387 169.469 43.1688 169.174 41.4937 168.561C39.352 167.806 37.318 166.45 35.4037 164.48C33.4893 162.522 32.5321 160.399 32.5321 158.135C32.5321 156.177 33.3696 154.443 35.0567 152.922C35.3558 152.627 35.8224 152.474 36.4326 152.474C37.9641 152.474 38.7298 153.158 38.7298 154.514C38.7298 154.962 38.5025 155.422 38.0359 155.87C37.5812 156.318 37.3419 157.003 37.3419 157.911C37.3419 158.665 37.6052 159.35 38.1436 159.951C38.682 160.553 39.6392 160.859 41.0151 160.859C41.9364 160.859 42.6184 160.788 43.085 160.635C44.6165 160.187 46.7941 159.279 49.6297 157.922C52.4654 156.566 55.289 154.974 58.1247 153.169C60.9603 151.353 63.4131 149.549 65.471 147.732C67.5409 145.916 68.5699 144.418 68.5699 143.203C68.5699 142.755 68.2588 142.295 67.6486 141.847C65.5069 140.491 62.5995 139.205 58.9263 138.002C55.2532 136.799 51.233 135.549 46.8659 134.264C42.4987 132.978 38.1436 131.586 33.7764 130.077C29.4093 128.567 25.4251 126.798 21.8356 124.758C18.2343 122.717 15.2909 120.311 12.9937 117.516C10.6965 114.721 9.54786 111.513 9.54786 107.892C9.54786 104.271 10.7683 100.049 13.221 95.6617C16.7387 89.4698 21.7519 83.7732 28.2607 78.5721C34.7695 73.3591 41.9244 68.9127 49.7374 65.2094C57.5504 61.5179 65.471 58.6047 73.5113 56.4936C81.5516 54.3825 88.8621 53.321 95.4427 53.321H95.4905Z" fill="#FBB03A"/>
<path d="M143.266 119.203C144.486 118.908 145.563 118.754 146.484 118.754H149.009C151.151 118.754 152.61 118.978 153.376 119.438C154.142 119.887 154.525 120.417 154.525 121.019C154.525 122.529 153.759 123.283 152.227 123.283C151.462 123.13 150.385 123.059 149.009 123.059C147.011 123.059 144.953 123.283 142.811 123.743C142.356 126.609 141.471 129.522 140.167 132.459C138.863 135.408 137.295 138.085 135.453 140.491C133.61 142.909 131.588 144.831 129.363 146.27C127.137 147.709 124.888 148.416 122.591 148.416C120.593 148.416 118.762 147.815 117.075 146.6C115.388 145.397 114.55 143.734 114.55 141.623C114.55 139.807 115.125 137.932 116.273 135.962C117.422 134.004 118.989 132.082 120.987 130.183C122.974 128.296 125.235 126.562 127.759 124.97C130.284 123.389 132.928 122.139 135.68 121.231C136.745 117.61 137.283 114.815 137.283 112.857C137.283 111.041 136.745 110.145 135.68 110.145C134.304 110.145 132.234 111.619 129.482 114.556C126.73 117.492 123.739 121.16 120.521 125.536C117.302 129.912 114.084 134.747 110.877 140.031C107.659 145.315 104.907 150.374 102.61 155.198C100.623 159.279 99.0919 162.782 98.0151 165.73C96.9502 168.679 96.029 171.132 95.2632 173.09C94.4975 175.047 93.6958 176.64 92.8463 177.843C92.0088 179.057 90.8243 180.107 89.2809 181.015C88.216 181.617 87.1392 181.923 86.0623 181.923C84.6864 181.923 83.6933 181.204 83.0712 179.777C82.461 178.35 82.1499 176.345 82.1499 173.774C82.1499 169.091 83.0353 163.1 84.7941 155.776C86.5529 148.452 88.6946 141.057 91.2311 133.591C93.7557 126.114 96.5195 119.25 99.4987 112.987C102.49 106.724 105.206 102.313 107.647 99.7424C108.712 98.6927 109.86 98.162 111.093 98.162C112.325 98.162 113.426 98.7281 114.419 99.8603C115.412 100.993 115.914 102.16 115.914 103.375V104.283L116.142 104.507C116.142 104.955 115.567 106.654 114.419 109.602C113.27 112.551 111.775 116.36 109.944 121.031C108.101 125.713 106.079 130.997 103.854 136.882C101.628 142.767 99.4509 148.959 97.3092 155.446C100.683 149.101 104.273 142.92 108.101 136.882C111.93 130.843 115.675 125.524 119.36 120.925C123.033 116.325 126.479 112.622 129.698 109.826C132.916 107.031 135.668 105.639 137.965 105.639C141.483 105.639 143.254 109.414 143.254 116.962V119.226L143.266 119.203ZM128.334 134.37C130.176 132.259 131.469 130.678 132.234 129.617C133 128.567 133.383 127.883 133.383 127.576C133.383 127.27 133.299 127.128 133.156 127.128C132.701 127.128 131.971 127.435 130.978 128.036C129.985 128.638 128.908 129.475 127.759 130.525C126.611 131.586 125.498 132.719 124.433 133.922C123.356 135.136 122.519 136.339 121.909 137.542L121.454 138.899C121.454 139.347 121.61 139.583 121.909 139.583C122.519 139.583 123.476 139.052 124.78 138.002C126.084 136.953 127.269 135.738 128.346 134.382L128.334 134.37Z" fill="#FBB03A"/>
<path d="M194.487 119.887C195.097 119.592 195.48 119.438 195.635 119.438C196.246 119.438 196.748 119.71 197.131 120.229C197.514 120.759 197.705 121.325 197.705 121.927C197.705 122.682 197.394 123.283 196.784 123.743C193.254 126.314 189.282 128.65 184.843 130.761C180.404 132.872 175.965 134.087 171.526 134.382C167.997 138.604 164.707 141.588 161.656 143.321C158.593 145.055 155.757 145.928 153.161 145.928C149.798 145.928 147.118 144.678 145.12 142.189C143.134 139.701 142.129 136.717 142.129 133.249C142.129 130.69 142.739 128.001 143.972 125.218C145.204 122.422 147.106 119.828 149.715 117.41V115.829C149.715 110.699 151.521 106.807 155.111 104.165C158.712 101.523 162.577 100.202 166.717 100.202C170.39 100.202 173.68 101.264 176.588 103.375C179.495 105.486 180.955 108.729 180.955 113.105C180.955 115.216 180.536 117.599 179.686 120.24C178.837 122.882 177.353 125.866 175.212 129.18C178.729 128.426 182.103 127.223 185.322 125.56C188.54 123.897 191.603 122.01 194.511 119.898L194.487 119.887ZM155.207 128.72C153.986 131.138 153.364 133.096 153.364 134.606C153.364 135.962 153.974 136.646 155.207 136.646C156.894 136.646 159.418 135.443 162.78 133.025C159.873 132.117 157.348 130.69 155.207 128.72ZM167.375 129.169C170.127 126.149 172.125 123.354 173.345 120.795C174.565 118.235 175.188 115.888 175.188 113.777C175.188 110.605 174.159 108.152 172.089 106.418C170.019 104.684 167.686 103.811 165.089 103.811C162.792 103.811 160.615 104.637 158.545 106.3C156.475 107.963 155.135 110.522 154.525 114.001C155.135 113.707 155.901 113.553 156.822 113.553C158.198 113.553 159.346 114.049 160.268 115.027C161.189 116.006 161.644 117.103 161.644 118.306C161.644 119.509 161.189 120.571 160.268 121.479L157.97 124.427C160.268 126.845 163.402 128.426 167.387 129.18L167.375 129.169Z" fill="#FBB03A"/>
<path d="M202.288 132.565C205.805 122.458 209.179 115.629 212.398 112.079C215.617 108.529 218.524 106.76 221.12 106.76C223.418 106.76 225.296 107.633 226.744 109.366C228.191 111.1 228.921 112.574 228.921 113.777C228.921 114.839 228.467 115.358 227.545 115.358C227.234 115.358 226.624 115.204 225.703 114.91C224.781 114.461 223.98 113.742 223.286 112.763C222.592 111.784 221.719 111.289 220.642 111.289C219.876 111.289 219.038 111.737 218.117 112.645C215.365 115.358 213.176 118.46 211.572 121.927C209.969 125.406 208.737 128.72 207.899 131.893C207.05 135.066 206.475 137.743 206.176 139.925C205.865 142.118 205.638 143.357 205.482 143.663C204.25 145.775 202.575 146.836 200.433 146.836C197.825 146.836 195.264 145.173 192.74 141.859C190.215 138.545 188.947 133.709 188.947 127.364C188.947 125.701 189.21 123.331 189.749 120.229C190.287 117.139 191.089 114.037 192.166 110.947C193.242 107.857 194.583 105.168 196.186 102.915C197.789 100.651 199.668 99.5183 201.809 99.5183C203.341 99.5183 204.645 100.273 205.71 101.783C206.164 102.691 206.404 103.599 206.404 104.495C206.404 105.557 206.176 106.842 205.71 108.34C205.255 109.85 204.788 111.619 204.334 113.659C203.879 115.7 203.412 118.118 202.958 120.901C202.503 123.696 202.264 126.975 202.264 130.749V132.565H202.288Z" fill="#FBB03A"/>
<path d="M277.39 51.9646C285.347 51.9646 291.82 52.0826 296.797 52.3067C301.775 52.5308 305.639 52.802 308.403 53.0969C311.155 53.4035 313.033 53.7809 314.026 54.2291C315.02 54.6773 315.522 55.0665 315.522 55.3613C315.522 55.8095 315.175 56.1869 314.493 56.4936C313.799 56.8002 313.38 56.9417 313.225 56.9417C309.396 56.7884 305.567 56.6823 301.739 56.5997C297.91 56.5289 294.009 56.4818 290.025 56.4818C286.041 56.4818 282.176 56.5172 278.431 56.5997C274.674 56.6823 270.81 56.7884 266.838 56.9417C264.229 64.0418 261.86 70.4106 259.719 76.0717C257.577 81.7328 255.16 88.1488 252.48 95.3196C249.8 102.49 247.084 109.85 244.332 117.398C241.58 124.946 238.852 132.341 236.172 139.583C233.492 146.824 231.087 153.276 228.933 158.937C226.792 164.598 224.423 170.896 221.814 177.843C221.36 178.751 220.438 179.199 219.062 179.199C218.297 179.199 217.615 178.975 216.992 178.515C216.382 178.067 216.071 177.465 216.071 176.699V176.475C216.227 174.363 216.957 170.778 218.249 165.718C219.553 160.659 221.24 154.667 223.298 147.721C225.368 140.774 227.701 133.273 230.297 125.194C232.906 117.115 235.622 109.001 238.457 100.851C241.293 92.7013 244.117 84.8583 246.952 77.3101C249.788 69.7619 252.42 63.1218 254.873 57.3899C240.778 58.1447 230.872 58.7108 225.128 59.0883C219.385 59.4657 216.514 59.8077 216.514 60.1025C216.514 60.3974 218.045 60.6333 221.108 60.7866C224.171 60.9399 228.156 61.164 233.049 61.4707H233.97L234.198 61.6947C234.198 61.8481 232.594 62.0368 229.376 62.2609C226.157 62.4849 222.221 62.6736 217.543 62.827C212.877 62.9803 207.935 63.1336 202.731 63.2751C197.526 63.4285 193.003 63.4992 189.174 63.4992C188.409 63.4992 187.834 63.2398 187.452 62.709C187.069 62.1783 186.877 61.6122 186.877 61.0107C186.877 60.5625 187.069 60.1025 187.452 59.6544C187.834 59.2062 188.409 58.8996 189.174 58.7462C202.647 56.6351 213.714 55.1962 222.365 54.4414C231.015 53.6866 237.907 53.1912 243.04 52.9671C248.173 52.7431 251.81 52.5897 253.952 52.519C256.093 52.4482 257.469 51.9528 258.091 51.0447C258.546 49.0869 260.006 48.0962 262.458 48.0962C263.679 48.0962 264.756 48.4028 265.677 49.0043C266.598 49.6058 267.208 50.5847 267.52 51.9528H277.39V51.9646ZM211.931 72.3448L211.704 72.1207L211.931 71.8966V72.3448Z" fill="#FBB03A"/>
<path d="M271.42 126.456C276.625 123.437 280.717 121.443 283.708 120.453C286.699 119.474 288.948 118.978 290.48 118.978C292.167 118.978 293.004 119.509 293.004 120.559C293.004 121.314 292.693 121.774 292.083 121.915C290.241 122.977 287.872 123.92 284.964 124.746C282.057 125.571 277.845 127.659 272.329 130.973C272.784 133.686 273.023 136.186 273.023 138.439C273.023 142.213 272.485 145.456 271.42 148.169C270.343 150.881 269.003 153.146 267.4 154.962C265.797 156.778 263.954 158.099 261.884 158.925C259.814 159.751 257.864 160.175 256.021 160.175C253.569 160.175 251.463 159.538 249.704 158.253C247.945 156.967 247.06 155.045 247.06 152.474C247.06 150.056 248.208 147.154 250.506 143.758C252.803 140.361 256.787 136.552 262.446 132.329C260.915 128.402 259.85 124.934 259.228 121.915C258.618 118.896 258.307 116.254 258.307 113.99C258.307 109.013 259.384 105.463 261.525 103.351C263.667 101.24 266.036 100.179 268.644 100.179C270.786 100.179 272.736 100.827 274.495 102.101C276.254 103.387 277.139 105.085 277.139 107.196C277.139 108.104 276.912 109.013 276.445 109.909C276.134 110.664 275.524 111.454 274.603 112.291C273.681 113.129 272.916 113.541 272.305 113.541C271.851 113.541 271.611 113.247 271.611 112.633C271.611 112.185 271.456 111.949 271.157 111.949C270.858 111.949 270.618 112.22 270.463 112.739C270.307 113.27 270.236 114.367 270.236 116.018C270.236 117.233 270.307 118.66 270.463 120.323C270.618 121.986 270.918 124.026 271.384 126.432L271.42 126.456ZM254.885 154.078C256.416 154.078 257.756 153.665 258.905 152.827C260.054 152.002 261.047 150.976 261.896 149.773C262.734 148.57 263.356 147.249 263.739 145.81C264.122 144.383 264.313 142.979 264.313 141.623V139.241C264.313 138.415 264.157 137.625 263.858 136.858C259.874 140.184 257.003 143.121 255.244 145.692C253.485 148.263 252.6 150.304 252.6 151.801C252.6 153.299 253.365 154.066 254.897 154.066L254.885 154.078Z" fill="#FBB03A"/>
</g>
</g>
<defs>
<filter id="filter0_d_12_256" x="6.54786" y="45.0962" width="325.974" height="153.827" filterUnits="userSpaceOnUse" color-interpolation-filters="sRGB">
<feFlood flood-opacity="0" result="BackgroundImageFix"/>
<feColorMatrix in="SourceAlpha" type="matrix" values="0 0 0 0 0 0 0 0 0 0 0 0 0 0 0 0 0 0 127 0" result="hardAlpha"/>
<feOffset dx="7" dy="7"/>
<feGaussianBlur stdDeviation="5"/>
<feColorMatrix type="matrix" values="0 0 0 0 0.137255 0 0 0 0 0.121569 0 0 0 0 0.12549 0 0 0 0.5 0"/>
<feBlend mode="normal" in2="BackgroundImageFix" result="effect1_dropShadow_12_256"/>
<feBlend mode="normal" in="SourceGraphic" in2="effect1_dropShadow_12_256" result="shape"/>
</filter>
<clipPath id="clip0_12_256">
<rect width="342" height="208" fill="white"/>
</clipPath>
</defs>
</svg>
