<svg width="42" height="46" viewBox="0 0 42 46" fill="none" xmlns="http://www.w3.org/2000/svg">
<path d="M16.611 7.43363C15.4098 7.56703 14.8596 7.68663 13.9734 8.00403C12.9192 8.38583 11.8524 8.99763 10.941 9.74743C10.4244 10.1752 9.58861 11.0584 9.17701 11.615C7.08541 14.4348 6.34201 18.1194 7.14001 21.666C8.28661 26.7398 12.4824 30.314 17.2872 30.314C22.3104 30.314 26.628 26.3856 27.552 20.976C27.8712 19.113 27.741 17.043 27.1908 15.2398C26.6742 13.5332 25.8552 12.075 24.696 10.8054C23.0748 9.02063 21.0714 7.91203 18.8034 7.53943C18.2742 7.45663 16.9848 7.39223 16.611 7.43363ZM18.3414 9.86703C21.8568 10.373 24.6918 13.2572 25.389 17.043C25.7502 19.0072 25.5234 21.022 24.738 22.8068C23.0244 26.6984 19.0806 28.7132 15.225 27.6598C12.4572 26.9054 10.1808 24.5226 9.34501 21.5004C9.08461 20.5574 9.01741 20.0376 9.01321 18.883C9.01321 17.7836 9.04681 17.457 9.28201 16.491C9.63901 15.0052 10.3152 13.6988 11.3148 12.5672C12.642 11.0584 14.364 10.12 16.2792 9.84863C16.758 9.78423 17.808 9.79343 18.3414 9.86703Z" fill="black"/>
<path d="M12.789 13.4412C12.6168 13.5056 12.1884 13.9748 11.865 14.444C11.3064 15.272 10.9116 16.2104 10.6848 17.273C10.5756 17.7882 10.5672 17.894 10.563 18.814C10.563 19.5914 10.5798 19.895 10.6386 20.24C10.8696 21.5464 11.424 22.7746 12.2388 23.7866C12.6714 24.3294 12.9444 24.4444 13.3434 24.2466C13.5912 24.1178 13.7466 23.851 13.7466 23.5382C13.7466 23.2438 13.7004 23.1472 13.4106 22.7976C12.1128 21.2566 11.6802 19.09 12.2682 17.0752C12.495 16.2978 12.8142 15.6952 13.3728 14.9822C13.7382 14.513 13.8138 14.3152 13.734 14.0024C13.6458 13.662 13.3056 13.3768 12.999 13.3906C12.9528 13.3906 12.8604 13.4136 12.789 13.4412Z" fill="black"/>
<path d="M26.397 26.6248C25.7796 27.5034 24.6246 28.7086 23.814 29.3112L23.709 29.3848L27.636 33.695C29.7948 36.0594 31.6596 38.0696 31.7772 38.1616C32.4618 38.6814 33.4572 38.7044 34.1544 38.2168C35.1456 37.5268 35.4606 36.11 34.8726 34.9922C34.797 34.8542 33.3144 33.1982 30.786 30.429C28.602 28.037 26.8086 26.082 26.796 26.082C26.7834 26.082 26.607 26.3258 26.397 26.6248Z" fill="black"/>
<path d="M0.671997 35.2084C0.671997 35.3188 0.692997 35.374 0.730797 35.374C0.764397 35.374 0.814797 35.3832 0.848397 35.397C0.881997 35.4108 0.923997 35.3694 0.953397 35.2774C1.0122 35.1072 1.113 35.121 1.113 35.2958C1.1088 35.3648 1.1256 35.42 1.1424 35.42C1.2096 35.42 1.2306 35.2774 1.1802 35.1624C1.1172 35.0106 0.965997 35.029 0.890397 35.2038C0.831597 35.3372 0.755997 35.3326 0.755997 35.19C0.755997 35.144 0.739197 35.0888 0.713997 35.075C0.688797 35.0566 0.671997 35.1118 0.671997 35.2084Z" fill="black"/>
<path d="M1.13401 35.627V35.742L1.05001 35.65C1.00381 35.5994 0.911409 35.558 0.840009 35.558C0.743409 35.558 0.709809 35.581 0.688809 35.6684C0.663609 35.7834 0.693009 35.88 0.751809 35.88C0.768609 35.88 0.781209 35.834 0.781209 35.7742C0.777009 35.627 0.924009 35.6178 1.05001 35.765C1.18441 35.9214 1.21801 35.9122 1.21801 35.696C1.21801 35.5948 1.20121 35.512 1.17601 35.512C1.15501 35.512 1.13401 35.5626 1.13401 35.627Z" fill="black"/>
<path d="M0.987009 36.018C0.970209 36.0456 0.919809 36.0548 0.877809 36.041C0.730809 35.9904 0.588009 36.2342 0.714009 36.317C0.798009 36.3722 1.10461 36.386 1.16341 36.3354C1.23901 36.2664 1.23061 36.133 1.15081 36.0456C1.07521 35.9582 1.02481 35.9536 0.987009 36.018ZM0.873609 36.1882C0.856809 36.2894 0.781209 36.2802 0.764409 36.1836C0.756009 36.1376 0.777009 36.11 0.819009 36.11C0.861009 36.11 0.882009 36.1422 0.873609 36.1882ZM1.12561 36.1882C1.11721 36.2342 1.08361 36.271 1.05001 36.271C1.01641 36.271 0.982809 36.2342 0.974409 36.1882C0.966009 36.133 0.987009 36.11 1.05001 36.11C1.11301 36.11 1.13401 36.133 1.12561 36.1882Z" fill="black"/>
<path d="M0.936626 36.5332C0.911426 36.5654 0.882026 36.6344 0.873626 36.685C0.856826 36.7678 0.848426 36.7632 0.806426 36.6482C0.781226 36.5792 0.739226 36.524 0.714026 36.524C0.642626 36.524 0.667826 36.6022 0.781226 36.7494C0.924026 36.9334 1.11303 36.9472 1.18443 36.7724C1.21803 36.6896 1.22223 36.6344 1.18863 36.5792C1.13403 36.478 0.991226 36.455 0.936626 36.5332ZM1.11303 36.6896C1.11303 36.7356 1.07943 36.7816 1.04163 36.7908C0.966026 36.8046 0.932426 36.6666 0.995426 36.5976C1.04583 36.547 1.11303 36.5976 1.11303 36.6896Z" fill="black"/>
<path d="M0.671997 37.145C0.671997 37.26 0.692997 37.352 0.713997 37.352C0.739197 37.352 0.755997 37.2876 0.755997 37.214C0.755997 37.0576 0.760197 37.053 0.915597 37.1404C1.0878 37.237 1.218 37.2692 1.218 37.2232C1.218 37.1864 0.768597 36.938 0.697197 36.938C0.684597 36.938 0.671997 37.03 0.671997 37.145Z" fill="black"/>
<path d="M0.986999 37.444C0.974399 37.467 0.907199 37.4762 0.839999 37.4624C0.734999 37.4348 0.713999 37.4486 0.688799 37.559C0.671999 37.628 0.680399 37.7016 0.709799 37.7338C0.772799 37.8028 1.0962 37.8166 1.1634 37.7568C1.239 37.6924 1.2306 37.559 1.1508 37.4716C1.0752 37.3888 1.0248 37.3796 0.986999 37.444ZM0.873599 37.6142C0.856799 37.7154 0.781199 37.7062 0.764399 37.6096C0.755999 37.5636 0.776999 37.536 0.818999 37.536C0.860999 37.536 0.881999 37.5682 0.873599 37.6142ZM1.1256 37.6142C1.1172 37.6602 1.0836 37.697 1.05 37.697C1.0164 37.697 0.982799 37.6602 0.974399 37.6142C0.965999 37.559 0.986999 37.536 1.05 37.536C1.113 37.536 1.134 37.559 1.1256 37.6142Z" fill="black"/>
<path d="M0.949191 37.9454C0.936591 37.9638 0.877791 37.973 0.823191 37.9638C0.739191 37.9454 0.713991 37.9638 0.692991 38.0558C0.663591 38.1754 0.692991 38.272 0.751791 38.272C0.772791 38.272 0.776991 38.2214 0.764391 38.157C0.751791 38.0742 0.764391 38.042 0.814791 38.042C0.852591 38.042 0.881991 38.0742 0.881991 38.111C0.881991 38.2122 0.953391 38.1938 0.978591 38.0834C1.01219 37.95 1.11299 38.0006 1.11299 38.1478C1.10879 38.2858 1.16339 38.3134 1.20539 38.1984C1.26419 38.0282 1.03319 37.7982 0.949191 37.9454Z" fill="black"/>
<path d="M0.743383 38.4468C0.650983 38.5572 0.655183 38.6078 0.747583 38.6998C0.852583 38.801 1.06258 38.7964 1.14658 38.6952C1.24318 38.5802 1.23478 38.5204 1.12558 38.4376C0.999583 38.341 0.827383 38.3456 0.743383 38.4468ZM1.06678 38.4836C1.16758 38.525 1.14658 38.6354 1.03318 38.6676C0.902983 38.6998 0.755983 38.6538 0.755983 38.571C0.755983 38.4744 0.928183 38.4238 1.06678 38.4836Z" fill="black"/>
<path d="M0.949191 38.9114C0.936591 38.9298 0.877791 38.939 0.823191 38.9298C0.739191 38.9114 0.713991 38.9298 0.692991 39.0218C0.663591 39.1414 0.692991 39.238 0.751791 39.238C0.772791 39.238 0.776991 39.1874 0.764391 39.123C0.751791 39.0402 0.764391 39.008 0.814791 39.008C0.852591 39.008 0.881991 39.0402 0.881991 39.077C0.881991 39.1782 0.953391 39.1598 0.978591 39.0494C1.01219 38.916 1.11299 38.9666 1.11299 39.1138C1.10879 39.2518 1.16339 39.2794 1.20539 39.1644C1.26419 38.9942 1.03319 38.7642 0.949191 38.9114Z" fill="black"/>
<path d="M0.797989 39.3346C0.797989 39.3576 0.781189 39.3668 0.755989 39.353C0.734989 39.3392 0.713989 39.3438 0.713989 39.3714C0.713989 39.3944 0.739189 39.4266 0.768589 39.4404C0.806389 39.4634 0.806389 39.4726 0.768589 39.4956C0.726589 39.514 0.730789 39.537 0.776989 39.5876C0.810589 39.629 0.860989 39.6428 0.886189 39.6244C0.911389 39.6106 0.944989 39.6198 0.961789 39.6474C0.982789 39.6842 1.02479 39.6888 1.09199 39.6612C1.17179 39.629 1.18019 39.6152 1.12139 39.5922C1.02479 39.5508 1.02899 39.4634 1.12559 39.5002C1.18019 39.5232 1.17599 39.5048 1.10459 39.4312C1.04999 39.3714 0.982789 39.3438 0.949189 39.3576C0.911389 39.3714 0.881989 39.3622 0.881989 39.3346C0.881989 39.307 0.865189 39.284 0.839989 39.284C0.818989 39.284 0.797989 39.307 0.797989 39.3346ZM0.965989 39.514C0.965989 39.537 0.949189 39.56 0.923989 39.56C0.902989 39.56 0.881989 39.537 0.881989 39.514C0.881989 39.4864 0.902989 39.468 0.923989 39.468C0.949189 39.468 0.965989 39.4864 0.965989 39.514Z" fill="black"/>
<path d="M0.567005 40.112C0.579605 40.1396 0.768605 40.158 0.991205 40.158C1.22641 40.158 1.38601 40.1396 1.38601 40.112C1.38601 40.0844 1.21801 40.066 0.961805 40.066C0.693005 40.066 0.550205 40.0844 0.567005 40.112Z" fill="black"/>
<path d="M0.798013 40.4938C0.798013 40.5352 0.840013 40.5996 0.890413 40.6364C0.982813 40.7054 0.978613 40.71 0.785413 40.71C0.638413 40.71 0.588013 40.7284 0.588013 40.779C0.588013 40.8342 0.651013 40.848 0.903013 40.848C1.15501 40.848 1.21801 40.8342 1.21801 40.779C1.21801 40.7376 1.18021 40.71 1.12561 40.7054H1.02901L1.12561 40.6318C1.17601 40.595 1.21801 40.5306 1.21801 40.4938C1.21801 40.4432 1.19281 40.4524 1.10461 40.5214L0.995413 40.618L0.894613 40.5168C0.814813 40.434 0.798013 40.4294 0.798013 40.4938Z" fill="black"/>
<path d="M0.798035 41.0274C0.798035 41.1516 0.911435 41.262 1.02903 41.262C1.12983 41.262 1.21803 41.147 1.21803 41.0136C1.21803 40.8986 1.14243 40.9262 1.12563 41.0412C1.11723 41.1194 1.08363 41.147 1.00803 41.147C0.932435 41.147 0.898835 41.1194 0.890435 41.0412C0.873635 40.917 0.798035 40.9032 0.798035 41.0274Z" fill="black"/>
<path d="M0.86521 41.4276C0.78541 41.5104 0.78121 41.5564 0.84001 41.6806C0.92821 41.86 1.21801 41.7542 1.21801 41.5426C1.21801 41.469 1.09201 41.354 1.00801 41.354C0.96601 41.354 0.89881 41.3862 0.86521 41.4276ZM1.11301 41.561C1.11301 41.6622 0.98281 41.7128 0.91561 41.6392C0.84421 41.561 0.91141 41.4368 1.01641 41.4552C1.07941 41.4644 1.11301 41.5012 1.11301 41.561Z" fill="black"/>
<path d="M0.797997 41.86C0.797997 41.883 0.768597 41.906 0.734997 41.906C0.701397 41.906 0.671997 41.9244 0.671997 41.952C0.671997 41.975 0.697197 41.998 0.730797 41.998C0.764397 41.998 0.797997 42.0256 0.810597 42.0532C0.827397 42.0992 0.839997 42.0992 0.886197 42.0532C0.915597 42.0256 1.0038 41.998 1.0794 41.998C1.1886 41.998 1.218 41.9796 1.218 41.906C1.218 41.8554 1.2012 41.814 1.176 41.814C1.155 41.814 1.134 41.8324 1.134 41.86C1.134 41.883 1.0794 41.906 1.008 41.906C0.940797 41.906 0.881997 41.883 0.881997 41.86C0.881997 41.8324 0.865197 41.814 0.839997 41.814C0.818997 41.814 0.797997 41.8324 0.797997 41.86Z" fill="black"/>
<path d="M0.890405 42.274C0.810605 42.4304 0.743405 42.4304 0.722405 42.2832C0.705605 42.1498 0.630005 42.1544 0.630005 42.2878C0.630005 42.527 0.848405 42.5776 0.957605 42.366C1.0416 42.205 1.113 42.2096 1.113 42.3844C1.1088 42.527 1.1928 42.5178 1.2096 42.3706C1.2432 42.1268 1.0038 42.0532 0.890405 42.274Z" fill="black"/>
<path d="M0.848417 42.8812C0.730817 43.01 0.823217 43.194 1.00802 43.194C1.06682 43.194 1.13822 43.171 1.16762 43.1388C1.23062 43.0698 1.23482 42.8904 1.17602 42.849C1.15082 42.8352 1.13402 42.872 1.13402 42.9364C1.13402 43.0008 1.11722 43.0652 1.09202 43.079C1.06682 43.0974 1.05002 43.0468 1.05002 42.9686C1.05002 42.8628 1.02902 42.826 0.974417 42.826C0.932417 42.826 0.877817 42.849 0.848417 42.8812ZM0.966017 43.0146C0.966017 43.0652 0.949217 43.0928 0.924017 43.079C0.903017 43.0652 0.882017 43.0192 0.882017 42.9824C0.882017 42.9456 0.903017 42.918 0.924017 42.918C0.949217 42.918 0.966017 42.9594 0.966017 43.0146Z" fill="black"/>
<path d="M0.827413 43.4194C0.793813 43.5206 0.751813 43.562 0.684613 43.562C0.625813 43.562 0.588013 43.5896 0.588013 43.631C0.588013 43.7368 1.16761 43.7322 1.20541 43.6218C1.24741 43.5022 1.12561 43.309 0.995413 43.2952C0.894613 43.2814 0.869413 43.3044 0.827413 43.4194ZM1.08361 43.4332C1.16341 43.5206 1.14241 43.562 1.00801 43.562C0.932413 43.562 0.882013 43.539 0.882013 43.5022C0.882013 43.3734 0.995413 43.3366 1.08361 43.4332Z" fill="black"/>
<path d="M0.86521 43.8656C0.78541 43.9484 0.78121 43.9944 0.84001 44.1186C0.92821 44.298 1.21801 44.1922 1.21801 43.9806C1.21801 43.907 1.09201 43.792 1.00801 43.792C0.96601 43.792 0.89881 43.8242 0.86521 43.8656ZM1.11301 43.999C1.11301 44.1002 0.98281 44.1508 0.91561 44.0772C0.84421 43.999 0.91141 43.8748 1.01641 43.8932C1.07941 43.9024 1.11301 43.9392 1.11301 43.999Z" fill="black"/>
<path d="M0.588013 44.39C0.588013 44.413 0.634213 44.436 0.693013 44.436C0.756013 44.436 0.798013 44.4636 0.798013 44.5004C0.798013 44.7074 1.10461 44.7856 1.18441 44.6016C1.26841 44.3946 1.20961 44.344 0.882013 44.344C0.714013 44.344 0.588013 44.3624 0.588013 44.39ZM1.12561 44.5142C1.11721 44.5694 1.07521 44.597 1.00801 44.597C0.940813 44.597 0.898813 44.5694 0.890413 44.5142C0.877813 44.4544 0.903013 44.436 1.00801 44.436C1.11301 44.436 1.13821 44.4544 1.12561 44.5142Z" fill="black"/>
<path d="M0.924014 44.8684C0.638414 44.9788 0.550214 45.0938 0.722414 45.1398C0.777014 45.149 0.907214 45.195 1.02061 45.2318C1.13821 45.2732 1.21801 45.2824 1.21801 45.2548C1.21801 45.2318 1.18021 45.1996 1.13401 45.1858C1.07941 45.1674 1.05001 45.1214 1.05001 45.0478C1.05001 44.9742 1.07941 44.9236 1.13401 44.9098C1.18021 44.896 1.21801 44.8546 1.21801 44.8224C1.21801 44.7856 1.21381 44.758 1.20961 44.7626C1.20121 44.7626 1.07521 44.8132 0.924014 44.8684ZM0.957614 45.0708C0.953414 45.0938 0.898814 45.0938 0.840014 45.0754L0.735014 45.0478L0.840014 45.0018C0.940814 44.9558 0.991214 44.988 0.957614 45.0708Z" fill="black"/>
</svg>
