<svg width="72" height="68" viewBox="0 0 72 68" fill="none" xmlns="http://www.w3.org/2000/svg">
<rect width="72" height="68" fill="white"/>
<g clip-path="url(#clip0_12_271)">
<path d="M13.8814 30.5979C14.0772 31.1167 14.473 31.6053 15.6519 32.7753C16.9141 34.0516 17.5109 34.3517 18.5939 34.2858C19.0776 34.2577 19.5092 34.1553 19.8151 34.0098C20.1421 33.8433 22.0367 32.0414 26.081 28.0489L31.8826 22.3273L31.768 40.6335L31.6639 58.9503L31.9017 59.4799C32.2119 60.1685 32.6811 60.6682 33.3304 60.9791C33.8226 61.2151 33.9696 61.2373 35.8612 61.2513L37.8685 61.2661L38.5119 60.9436C39.187 60.6108 39.6741 60.1182 39.9946 59.4132C40.1656 59.0344 40.1851 57.8204 40.3438 40.6442L40.5008 22.2856L46.3736 28.252C52.8304 34.8244 52.5276 34.5582 53.8622 34.5681C54.8291 34.5753 55.5047 34.1686 56.8919 32.7641C57.5378 32.1143 58.1524 31.4221 58.259 31.2222C58.5466 30.7071 58.5592 29.0074 58.2899 28.4775C58.0204 27.9687 38.3583 7.9113 37.7724 7.548C37.3539 7.29152 37.1965 7.25868 36.3033 7.25207C35.5361 7.24638 35.2205 7.28628 34.9357 7.43197C34.4292 7.70272 14.4512 27.4559 14.1001 28.034C13.8765 28.4124 13.8222 28.6549 13.7855 29.3514C13.7604 29.9002 13.7992 30.3439 13.8814 30.5979Z" fill="black"/>
</g>
<defs>
<clipPath id="clip0_12_271">
<rect width="54.0538" height="53.8079" fill="white" transform="translate(9 61.0523) rotate(-89.5756)"/>
</clipPath>
</defs>
</svg>
